<?xml version="1.0" ?><svg height="24px" version="1.1" viewBox="0 0 24 24" width="24px" xmlns="http://www.w3.org/2000/svg" xmlns:sketch="http://www.bohemiancoding.com/sketch/ns" xmlns:xlink="http://www.w3.org/1999/xlink"><title/><desc/><defs/><g fill="none" fill-rule="evenodd" id="miu" stroke="none" stroke-width="1"><g id="Artboard-1" transform="translate(-251.000000, -623.000000)"><g id="slice" transform="translate(215.000000, 119.000000)"/><path d="M258,626.003082 L258,644.030817 C258,646.033898 260,646.033898 260,646.033898 L267,646.033898 C267,646.033898 269,646.033898 269,644.030817 L269,626.003082 C269,624 267,624 267,624 L260,624 C260,624 258,624 258,626.003082 Z M259,626.5 L259,642.5 L268,642.5 L268,626.5 L259,626.5 L259,626.5 Z M263.5,645.199997 C264.052285,645.199997 264.5,644.752282 264.5,644.199997 C264.5,643.647712 264.052285,643.199997 263.5,643.199997 C262.947715,643.199997 262.5,643.647712 262.5,644.199997 C262.5,644.752282 262.947715,645.199997 263.5,645.199997 L263.5,645.199997 Z M262.132777,625 C262.059446,625 262,625.096554 262,625.221103 L262,625.279668 C262,625.401779 262.059926,625.50077 262.132777,625.50077 L264.867223,625.50077 C264.940554,625.50077 265,625.404217 265,625.279668 L265,625.221103 C265,625.098991 264.940074,625 264.867223,625 L262.132777,625 L262.132777,625 Z" fill="#000000" id="device-iPhone-smart-phone-vertical-glyph"/></g></g></svg>