<?xml version="1.0" ?><svg height="24px" version="1.1" viewBox="0 0 24 24" width="24px" xmlns="http://www.w3.org/2000/svg" xmlns:sketch="http://www.bohemiancoding.com/sketch/ns" xmlns:xlink="http://www.w3.org/1999/xlink"><title/><desc/><defs/><g fill="none" fill-rule="evenodd" id="miu" stroke="none" stroke-width="1"><g id="Artboard-1" transform="translate(-611.000000, -587.000000)"><g id="slice" transform="translate(215.000000, 119.000000)"/><path d="M620,606 L614,606 C614,606 612,606 612,604 L612,590 C612,588 614,588 614,588 L632,588 C632,588 634,588 634,590 L634,604 C634,606 632,606 632,606 L626,606 L626,607.622434 L628.14077,610 L617.857683,610 L620,607.620716 L620,606 Z M621,606 L625,606 L625,608 L625.894733,609 L620.10372,609 L621,608 L621,606 Z M613,590.04 L613,600.96 C613,602 614,602 614,602 L632,602 C632,602 633,602 633,600.96 L633,590.04 C633,589 632,589 632,589 L614,589 C614,589 613,589 613,590.04 Z" fill="#000000" id="device-monitor-screen-computer-desktop-pc-display-glyph"/></g></g></svg>