<?xml version="1.0" encoding="utf-8"?>
<!-- Generator: Adobe Illustrator 15.0.0, SVG Export Plug-In . SVG Version: 6.00 Build 0)  -->
<!DOCTYPE svg PUBLIC "-//W3C//DTD SVG 1.1//EN" "http://www.w3.org/Graphics/SVG/1.1/DTD/svg11.dtd">
<svg version="1.1" id="Layer_1" xmlns="http://www.w3.org/2000/svg" xmlns:xlink="http://www.w3.org/1999/xlink" x="0px" y="0px"
	 width="32px" height="32px" viewBox="0 0 32 32" enable-background="new 0 0 32 32" xml:space="preserve">
<g>
	<g>
		<g>
			<path stroke="#000000" stroke-width="2" stroke-miterlimit="10" d="M16.001,2.496c7.444,0,13.502,6.057,13.502,13.502
				c0,7.444-6.058,13.502-13.502,13.502c-7.445,0-13.502-6.059-13.502-13.502C2.499,8.553,8.556,2.496,16.001,2.496 M16.001,0.996
				c-8.287,0-15.002,6.716-15.002,15.002c0,8.287,6.716,15.002,15.002,15.002c8.285,0,15.002-6.716,15.002-15.002
				C31.003,7.712,24.286,0.996,16.001,0.996L16.001,0.996z"/>
		</g>
	</g>
	<g>
		<path d="M20.177,24.328c-1.558,0.751-3.008,1.02-4.862,1.02c-4.433,0-8.273-3.195-8.273-8.437c0-5.48,3.921-10.262,9.939-10.262
			c4.729,0,7.979,3.278,7.979,7.764c0,3.975-2.229,6.393-4.944,6.393c-1.182,0-2.121-0.67-2.175-2.203H17.76
			c-0.887,1.479-2.096,2.203-3.601,2.203c-1.666,0-2.983-1.289-2.983-3.439c0-3.302,2.527-6.312,6.341-6.312
			c1.184,0,2.366,0.269,3.063,0.619l-0.859,4.916c-0.322,1.8-0.082,2.633,0.726,2.633c1.263,0.055,2.739-1.586,2.739-4.675
			c0-3.707-2.283-6.42-6.447-6.42c-4.246,0-7.874,3.304-7.874,8.597c0,4.486,2.903,7.119,6.878,7.119
			c1.451,0,2.901-0.294,3.978-0.888L20.177,24.328z M18.216,13.018c-0.269-0.082-0.616-0.162-1.073-0.162
			c-2.042,0-3.655,1.987-3.655,4.271c0,1.102,0.511,1.854,1.505,1.854c1.263,0,2.47-1.613,2.741-3.196L18.216,13.018z"/>
	</g>
</g>
</svg>
