<svg id="Layer_1" data-name="Layer 1" xmlns="http://www.w3.org/2000/svg" viewBox="0 0 36.92 36.92"><title>github</title><g id="black"><g id="github"><path d="M13.89,36c0-.45,0-1.64,0-3.22-5.14,1.14-6.22-2.54-6.22-2.54a5,5,0,0,0-2.05-2.77c-1.68-1.17.13-1.15,0.13-1.15a3.89,3.89,0,0,1,2.83,2,3.88,3.88,0,0,0,5.37,1.57,4.09,4.09,0,0,1,1.17-2.53c-4.1-.48-8.41-2.1-8.41-9.36a7.42,7.42,0,0,1,1.9-5.08,7,7,0,0,1,.18-5s1.55-.51,5.08,1.94a17.06,17.06,0,0,1,9.24,0c3.52-2.45,5.07-1.94,5.07-1.94a7,7,0,0,1,.18,5,7.41,7.41,0,0,1,1.9,5.08c0,7.27-4.32,8.87-8.43,9.34a4.58,4.58,0,0,1,1.25,3.51c0,2.53,0,4.57,0,5.19a0.93,0.93,0,0,0,1.27.91,18.9,18.9,0,0,0,12.61-18A18.7,18.7,0,0,0,18.46,0,18.7,18.7,0,0,0,0,18.93a18.9,18.9,0,0,0,12.63,18A0.93,0.93,0,0,0,13.89,36Z"/></g></g></svg>