<?xml version="1.0" encoding="utf-8"?>
<!-- Generator: Adobe Illustrator 19.2.0, SVG Export Plug-In . SVG Version: 6.00 Build 0)  -->
<svg version="1.1" id="Layer_1" xmlns="http://www.w3.org/2000/svg" xmlns:xlink="http://www.w3.org/1999/xlink" x="0px" y="0px"
	 viewBox="0 0 369.9 369.3" style="enable-background:new 0 0 369.9 369.3;" xml:space="preserve">
<style type="text/css">
	.st0{fill:none;stroke:#231F20;stroke-linecap:round;stroke-miterlimit:10;}
	.st1{fill:#252525;}
	.st2{fill:#111111;stroke:#231F20;stroke-linecap:round;stroke-miterlimit:10;}
	.st3{fill:#036307;stroke:#231F20;stroke-linecap:round;stroke-miterlimit:10;}
	.st4{fill:#E6E7E8;stroke:#231F20;stroke-linecap:round;stroke-miterlimit:10;}
	.st5{fill:#252525;stroke:#231F20;stroke-linecap:round;stroke-miterlimit:10;}
	.st6{opacity:0.27;fill:#FCFCFC;}
</style>
<title>projectresponsive logo</title>
<path class="st0" d="M289.4,315.2"/>
<path class="st0" d="M289.4,315.2"/>
<path class="st0" d="M289.4,315.2"/>
<path class="st0" d="M289.4,315.2"/>
<path class="st0" d="M289.4,315.2"/>
<path class="st0" d="M289.4,315.2"/>
<path class="st1" d="M60.7,84.7"/>
<path class="st0" d="M60.7,84.7"/>
<path class="st1" d="M60.7,84.7"/>
<path class="st0" d="M60.7,84.7"/>
<path class="st1" d="M60.7,84.7"/>
<path class="st0" d="M60.7,84.7"/>
<path class="st1" d="M60.7,84.7"/>
<path class="st0" d="M60.7,84.7"/>
<path class="st1" d="M60.7,84.7"/>
<path class="st0" d="M60.7,84.7"/>
<path class="st1" d="M60.7,84.7"/>
<path class="st0" d="M60.7,84.7"/>
<path class="st0" d="M315.2,289.6"/>
<path class="st0" d="M315.2,289.6"/>
<path class="st0" d="M315.2,289.6"/>
<path class="st0" d="M315.2,289.6"/>
<path class="st0" d="M315.2,289.6"/>
<path class="st0" d="M315.2,289.6"/>
<path class="st1" d="M89.3,62.1"/>
<path class="st0" d="M89.3,62.1"/>
<path class="st1" d="M89.3,62.1"/>
<path class="st0" d="M89.3,62.1"/>
<path class="st1" d="M89.3,62.1"/>
<path class="st0" d="M89.3,62.1"/>
<path class="st1" d="M89.3,62.1"/>
<path class="st0" d="M89.3,62.1"/>
<path class="st1" d="M89.3,62.1"/>
<path class="st0" d="M89.3,62.1"/>
<path class="st1" d="M89.3,62.1"/>
<path class="st0" d="M89.3,62.1"/>
<polygon class="st2" points="2.4,185.9 1.7,138.5 47.2,183.2 1.7,229.8 "/>
<rect x="15" y="105.9" transform="matrix(0.7098 -0.7044 0.7044 0.7098 -83.3006 73.5372)" class="st2" width="65.2" height="63.9"/>
<rect x="61.3" y="60" transform="matrix(0.7098 -0.7044 0.7044 0.7098 -37.5214 92.8075)" class="st2" width="65.2" height="63.9"/>
<rect x="107.7" y="14.5" transform="matrix(0.7098 -0.7044 0.7044 0.7098 7.8051 111.8915)" class="st2" width="63.9" height="63.9"/>
<polygon class="st2" points="139.9,1.5 185.5,1.5 231.2,0.9 184.9,46.8 "/>
<rect x="14.2" y="197" transform="matrix(0.7098 -0.7044 0.7044 0.7098 -148.1539 99.5976)" class="st3" width="65.2" height="65.2"/>
<rect x="60.5" y="151.1" transform="matrix(0.7098 -0.7044 0.7044 0.7098 -102.3776 118.8608)" class="st4" width="65.2" height="65.2"/>
<rect x="106.8" y="105.2" transform="matrix(0.7098 -0.7044 0.7044 0.7098 -56.5984 138.1369)" class="st4" width="65.2" height="65.2"/>
<rect x="153.2" y="59.7" transform="matrix(0.7098 -0.7044 0.7044 0.7098 -11.279 157.218)" class="st4" width="63.9" height="65.2"/>
<rect x="198.4" y="14.2" transform="matrix(0.7098 -0.7044 0.7044 0.7098 34.0505 176.295)" class="st3" width="65.2" height="65.2"/>
<rect x="60.1" y="243.3" transform="matrix(0.7098 -0.7044 0.7044 0.7098 -167.423 145.3739)" class="st3" width="65.2" height="65.2"/>
<rect x="106.4" y="197.4" transform="matrix(0.7098 -0.7044 0.7044 0.7098 -121.6479 164.64)" class="st4" width="65.2" height="65.2"/>
<rect x="152.7" y="151.4" transform="matrix(0.7098 -0.7044 0.7044 0.7098 -75.8716 183.9091)" class="st4" width="65.2" height="65.2"/>
<rect x="199.1" y="106" transform="matrix(0.7098 -0.7044 0.7044 0.7098 -30.5451 202.9931)" class="st4" width="63.9" height="65.2"/>
<rect x="244.3" y="60.5" transform="matrix(0.7098 -0.7044 0.7044 0.7098 14.7814 222.0771)" class="st3" width="65.2" height="65.2"/>
<rect x="106" y="289.6" transform="matrix(0.7098 -0.7044 0.7044 0.7098 -186.6961 191.146)" class="st3" width="65.2" height="65.2"/>
<rect x="152.3" y="243.6" transform="matrix(0.7098 -0.7044 0.7044 0.7098 -140.9169 210.4222)" class="st4" width="65.2" height="65.2"/>
<rect x="198.6" y="197.7" transform="matrix(0.7098 -0.7044 0.7044 0.7098 -95.1418 229.6883)" class="st4" width="65.2" height="65.2"/>
<rect x="245.1" y="152.3" transform="matrix(0.7098 -0.7044 0.7044 0.7098 -49.8183 248.7653)" class="st4" width="63.9" height="65.2"/>
<rect x="290.2" y="106.8" transform="matrix(0.7098 -0.7044 0.7044 0.7098 -4.4848 267.8464)" class="st3" width="65.2" height="65.2"/>
<polygon class="st2" points="138.5,368.2 184.8,322.3 230.7,368.5 184.6,368.5 "/>
<rect x="198.3" y="289.9" transform="matrix(0.7098 -0.7044 0.7044 0.7098 -160.1901 256.1943)" class="st2" width="65.2" height="65.2"/>
<rect x="244.5" y="244" transform="matrix(0.7098 -0.7044 0.7044 0.7098 -114.4109 275.4646)" class="st2" width="65.2" height="65.2"/>
<rect x="291" y="198.5" transform="matrix(0.7098 -0.7044 0.7044 0.7098 -69.0845 294.5486)" class="st2" width="63.9" height="65.2"/>
<polygon class="st5" points="322.9,185.4 369.4,139.5 369.4,185.6 368.9,231.7 "/>
<ellipse transform="matrix(0.2558 -0.9667 0.9667 0.2558 98.9095 251.6419)" class="st6" cx="212.9" cy="61.6" rx="88.6" ry="184.7"/>
</svg>
