<?xml version="1.0" ?><svg height="24px" version="1.1" viewBox="0 0 24 24" width="24px" xmlns="http://www.w3.org/2000/svg" xmlns:sketch="http://www.bohemiancoding.com/sketch/ns" xmlns:xlink="http://www.w3.org/1999/xlink"><title/><desc/><defs/><g fill="none" fill-rule="evenodd" id="miu" stroke="none" stroke-width="1"><g id="Artboard-1" transform="translate(-323.000000, -623.000000)"><g id="slice" transform="translate(215.000000, 119.000000)"/><path d="M327,626 L327,644 C327,646 329.060606,646 329.060606,646 L340.939394,646 C340.939394,646 343,646 343,644 L343,626 C343,624 340.939394,624 340.939394,624 L329.060606,624 C329.060606,624 327,624 327,626 Z M328,626.034502 L328,641.965498 C328,643 329.111111,643 329.111111,643 L340.888889,643 C340.888889,643 342,643 342,641.965498 L342,626.034502 C342,625 340.888889,625 340.888889,625 L329.111111,625 C329.111111,625 328,625 328,626.034502 Z M335.749325,644.494263 C335.749325,644.080049 335.402496,643.744263 334.974661,643.744263 C334.546826,643.744263 334.199997,644.080049 334.199997,644.494263 C334.199997,644.908476 334.546826,645.244263 334.974661,645.244263 C335.402496,645.244263 335.749325,644.908476 335.749325,644.494263 Z" fill="#000000" id="device-tablet-ipad-vertical-glyph"/></g></g></svg>